<svg width="120" height="40" viewBox="0 0 120 40" xmlns="http://www.w3.org/2000/svg">
  <rect width="40" height="40" rx="8" fill="#5d7972"/>
  <path d="M10 20C10 14.477 14.477 10 20 10C25.523 10 30 14.477 30 20C30 25.523 25.523 30 20 30C14.477 30 10 25.523 10 20ZM20 12C15.582 12 12 15.582 12 20C12 24.418 15.582 28 20 28C24.418 28 28 24.418 28 20C28 15.582 24.418 12 20 12Z" fill="white"/>
  <path d="M20 14C17.791 14 16 15.791 16 18V24C16 24.552 16.448 25 17 25C17.552 25 18 24.552 18 24V21H22V24C22 24.552 22.448 25 23 25C23.552 25 24 24.552 24 24V18C24 15.791 22.209 14 20 14ZM20 16C21.105 16 22 16.895 22 18V19H18V18C18 16.895 18.895 16 20 16Z" fill="white"/>
  <text x="45" y="25" font-family="Arial" font-weight="bold" font-size="16" fill="#5d7972">PAR DAR</text>
</svg>